Coordinates
version=1
nRows=4
nColumns=63
inDegrees=yes

Units are S.I. units (second, meters, Newtons, ...)
If the header above contains a line with 'inDegrees', this indicates whether rotational values are in degrees (yes) or radians (no).

endheader
time	pelvis_tilt	pelvis_list	pelvis_rotation	pelvis_tx	pelvis_ty	pelvis_tz	hip_flexion_r	hip_adduction_r	hip_rotation_r	knee_angle_r	knee_angle_r_beta	ankle_angle_r	subtalar_angle_r	mtp_angle_r	hip_flexion_l	hip_adduction_l	hip_rotation_l	knee_angle_l	knee_angle_l_beta	ankle_angle_l	subtalar_angle_l	mtp_angle_l	L5_S1_Flex_Ext	L5_S1_Lat_Bending	L5_S1_axial_rotation	L4_L5_Flex_Ext	L4_L5_Lat_Bending	L4_L5_axial_rotation	L3_L4_Flex_Ext	L3_L4_Lat_Bending	L3_L4_axial_rotation	L2_L3_Flex_Ext	L2_L3_Lat_Bending	L2_L3_axial_rotation	L1_L2_Flex_Ext	L1_L2_Lat_Bending	L1_L2_axial_rotation	L1_T12_Flex_Ext	L1_T12_Lat_Bending	L1_T12_axial_rotation	Abs_r3	Abs_r2	Abs_r1	Abs_t1	Abs_t2	neck_flexion	neck_bending	neck_rotation	arm_flex_r	arm_add_r	arm_rot_r	elbow_flex_r	pro_sup_r	wrist_flex_r	wrist_dev_r	arm_flex_l	arm_add_l	arm_rot_l	elbow_flex_l	pro_sup_l	wrist_flex_l	wrist_dev_l
      1.72881356	      3.87064856	      3.94332030	     80.14521950	      0.12450602	      0.45103616	      1.03169634	     -3.91137506	     -2.51429524	     -8.63635062	     10.41520852	      0.18177968	     27.70447209	     16.53411195	      0.00000000	     -9.64658602	     -0.01513970	      4.62447030	      0.77077512	      0.01345256	     19.02963541	    -14.21572162	      0.00000000	      0.01660227	      0.30140480	     -0.07494184	      0.03083208	      0.40086839	     -0.07962570	      0.02727588	      0.73283563	     -0.07962570	      0.01897474	      0.73283563	     -0.06557411	      0.01541687	      0.61462467	     -0.06089024	      0.00948654	      0.46687604	     -0.05620638	      0.11858839	      3.40955140	     -0.41680403	      0.00000000	      0.00000000	     16.68958966	      0.42390681	      1.71843715	     -3.50887597	    -28.19237854	     53.79126256	     34.76005294	     82.43714781	     -0.43049422	     -9.44562119	      8.86979996	    -20.21282339	     88.40687540	     29.85923593	     72.72111510	     -9.95696591	     -7.37842967
      1.74576271	      3.73571101	      3.95513879	     80.20345688	      0.12496208	      0.45050843	      1.03123384	     -3.89109508	     -2.60026328	     -8.17142542	     10.49724292	      0.18321145	     28.10565847	     16.31914510	      0.00000000	     -9.65205395	      0.08376215	      4.60109871	      0.74844879	      0.01306290	     19.18085506	    -14.16744449	      0.00000000	      0.03795359	      0.26119170	     -0.13254691	      0.07048361	      0.34738496	     -0.14083110	      0.06235395	      0.63506150	     -0.14083110	      0.04337716	      0.63506150	     -0.11597855	      0.03524370	      0.53262211	     -0.10769437	      0.02168668	      0.40458594	     -0.09941019	      0.27109871	      2.95465273	     -0.73718618	      0.00000000	      0.00000000	     16.75711130	      1.03683073	      2.20454577	     -2.98699896	    -27.80935485	     54.80137305	     34.12275335	     82.65972351	     -0.05770277	    -11.08365019	      7.96523119	    -20.61594438	     87.62813519	     28.53926072	     67.00117874	     -6.35231425	     -7.74256328
      1.76271186	      3.68700520	      4.15345458	     80.36327575	      0.12507413	      0.45036061	      1.03104651	     -4.09075903	     -2.62624740	     -7.81507394	     10.52974376	      0.18377870	     28.38027249	     16.04409019	      0.00000000	     -9.82161062	      0.12644520	      4.45966978	      0.72861085	      0.01271666	     19.45986225	    -13.86931002	      0.00000000	      0.03403592	      0.22574089	     -0.08313057	      0.06320810	      0.30023539	     -0.08832623	      0.05591761	      0.54886641	     -0.08832623	      0.03889965	      0.54886641	     -0.07273925	      0.03160575	      0.46033083	     -0.06754359	      0.01944812	      0.34967265	     -0.06234793	      0.24311514	      2.55362615	     -0.46234728	      0.00000000	      0.00000000	     16.52544690	      1.40975647	      1.78880082	     -2.77173702	    -27.43284381	     56.11640320	     33.47045337	     81.36199813	     -0.77878513	    -12.83894963	     10.71733989	    -19.87444720	    105.92738592	     26.60963943	     45.82219264	     -4.97829004	    -10.92035455
      1.77966102	      3.42864500	      4.16547155	     80.65973497	      0.12570569	      0.44988917	      1.03042599	     -4.06858603	     -2.81426430	     -7.69010187	     10.64293012	      0.18575417	     28.79208557	     15.74386838	      0.00000000	     -9.76657527	      0.30249925	      4.63341831	      0.69630458	      0.01215281	     19.84193713	    -13.68900311	      0.00000000	      0.06049699	      0.15871878	     -0.18121598	      0.11234896	      0.21109598	     -0.19254198	      0.09939050	      0.38590885	     -0.19254198	      0.06914201	      0.38590885	     -0.15856398	      0.05617750	      0.32365934	     -0.14723798	      0.03456798	      0.24585540	     -0.13591198	      0.43212394	      1.79545862	     -1.00786891	      0.00000000	      0.00000000	     16.28221564	      2.33830593	      1.98062232	     -2.47862447	    -26.51027280	     56.37971345	     32.44192152	     81.65455393	     -0.97381070	    -14.15320732	      9.88247112	    -20.51493029	    106.55806585	     25.79274809	     43.44562826	     -1.13364101	     -7.81452686
